<svg width="582" height="661" viewBox="0 0 582 661" fill="none" xmlns="http://www.w3.org/2000/svg">
<path d="M295 0L295 230" stroke="white" stroke-width="2" stroke-linecap="round"/>
<g clip-path="url(#clip0_102_2)" filter="url(#filter0_d_102_2)">
<path opacity="0.15" d="M262.705 299.836L127.696 643.337C127.696 643.337 207.714 680.967 464.012 646.189L330.1 298.739C330.1 298.739 323.185 301.262 296.732 302.03C272.035 302.688 262.705 299.836 262.705 299.836Z" fill="white"/>
<g opacity="0.7">
<g opacity="0.7">
<path opacity="0.7" d="M471.915 647.725C471.915 654.198 392.665 659.574 294.866 659.574C197.067 659.574 117.818 654.308 117.818 647.725C117.818 641.143 197.067 635.876 294.866 635.876C392.665 635.986 471.915 641.252 471.915 647.725Z" fill="#E89F2B"/>
</g>
</g>
<path d="M394.377 642.14C396.367 636.738 393.598 630.748 388.194 628.759C382.79 626.771 376.796 629.538 374.807 634.94C372.818 640.341 375.586 646.332 380.991 648.32C386.395 650.308 392.388 647.541 394.377 642.14Z" fill="#E89F2B"/>
<path d="M384.653 576.523C378.835 576.523 374.225 571.806 374.115 566.101C374.115 560.286 378.835 555.679 384.543 555.569C390.36 555.569 394.97 560.286 395.08 565.991C395.08 571.916 390.36 576.523 384.653 576.523Z" fill="#E89F2B"/>
<path d="M447.657 602.525C451.169 603.073 454.791 603.402 457.755 605.487C459.402 606.584 460.828 608.01 461.816 609.656C462.694 611.082 462.694 612.289 464.231 613.167C464.999 613.605 465.768 613.167 466.097 612.399C467.524 608.778 462.146 604.28 459.402 602.744C455.779 600.66 451.279 599.562 447.547 601.866C447.218 601.976 447.218 602.525 447.657 602.525Z" fill="#D18C2B"/>
<path d="M459.731 615.69C463.133 624.467 476.854 619.201 473.341 610.314C469.939 601.537 456.328 606.913 459.731 615.69Z" fill="#DC432B"/>
<path d="M281.146 651.016C267.864 652.004 254.583 652.662 241.302 652.333C228.02 652.004 214.849 649.151 201.567 649.042C200.25 649.042 200.03 651.016 201.238 651.346C213.641 655.295 228.349 655.185 241.302 655.514C254.802 655.734 268.084 654.966 281.365 652.991C282.573 652.881 282.353 650.907 281.146 651.016Z" fill="#DC432B"/>
<path d="M142.185 641.801C158.54 642.788 174.785 642.898 191.14 642.678C205.958 642.459 222.422 643.666 236.911 640.594C238.009 640.375 237.679 638.839 236.691 638.729C228.569 637.851 220.337 639.168 212.214 639.387C204.641 639.607 197.067 639.716 189.493 639.716C173.687 639.826 157.991 639.607 142.185 639.607C140.758 639.607 140.758 641.691 142.185 641.801Z" fill="#DC432B"/>
<path d="M289.927 579.266L289.817 624.905L283.89 624.905L273.682 602.086L285.756 579.266L289.927 579.266Z" fill="#F1EFE8"/>
<path d="M241.411 634.67L241.521 547.889C241.521 543.062 245.363 539.222 250.192 539.222L322.307 539.332C327.137 539.332 330.978 543.172 330.978 547.999L330.869 634.779C330.869 639.607 327.027 643.446 322.197 643.446L250.083 643.337C245.253 643.337 241.411 639.497 241.411 634.67Z" fill="#DC432B"/>
<path d="M244.155 603.951L269.62 550.961C270.389 549.425 272.145 548.767 273.682 549.535L280.158 552.607C281.694 553.375 282.353 555.13 281.585 556.666L256.12 609.656C255.351 611.192 253.595 611.85 252.058 611.082L245.582 608.01C244.046 607.352 243.387 605.487 244.155 603.951Z" fill="#E89F2B"/>
<path d="M269.072 557.653C266.767 562.371 274.121 565.991 276.426 561.164C278.731 556.447 271.377 552.826 269.072 557.653Z" fill="#353831"/>
<path d="M261.827 572.793C259.522 577.511 266.876 581.131 269.181 576.304C271.486 571.587 264.022 568.076 261.827 572.793Z" fill="#353831"/>
<path d="M254.912 587.056C252.607 591.773 259.961 595.394 262.266 590.566C264.571 585.849 257.217 582.228 254.912 587.056Z" fill="#353831"/>
<path d="M248.985 599.453C246.68 604.17 254.034 607.791 256.339 602.964C258.644 598.246 251.29 594.626 248.985 599.453Z" fill="#353831"/>
<path d="M301.232 643.446C301.452 643.446 301.781 643.446 302.001 643.446C302.22 643.446 302.55 643.446 302.769 643.446L303.537 636.425C303.867 636.425 304.196 636.315 304.416 636.315L306.611 643.117C307.05 643.008 307.599 642.898 308.038 642.788L307.269 635.767C307.599 635.657 307.818 635.547 308.147 635.438L311.66 641.581C312.099 641.362 312.538 641.142 312.977 640.923L310.782 634.121C311.001 634.011 311.331 633.792 311.55 633.682L316.27 638.948C316.709 638.619 317.038 638.4 317.477 638.071L313.965 631.927C314.184 631.707 314.404 631.488 314.624 631.269L320.331 635.438C320.661 635.108 320.99 634.67 321.319 634.34L316.599 629.074C316.819 628.855 316.929 628.636 317.148 628.306L323.624 631.159C323.844 630.72 324.173 630.281 324.392 629.842L318.685 625.673C318.795 625.344 318.904 625.125 319.014 624.796L325.929 626.332C326.149 625.893 326.258 625.344 326.368 624.905L319.892 622.053C320.002 621.724 320.002 621.504 320.112 621.175L327.246 621.175C327.356 620.736 327.356 620.188 327.356 619.639L320.441 618.213C320.441 618.103 320.441 617.884 320.441 617.774C320.441 617.665 320.441 617.445 320.441 617.335L327.356 615.909C327.356 615.361 327.246 614.922 327.246 614.373L320.112 614.373C320.002 614.044 320.002 613.715 319.892 613.496L326.368 610.643C326.258 610.204 326.039 609.656 325.929 609.217L319.014 610.643C318.904 610.314 318.795 610.095 318.685 609.766L324.392 605.597C324.173 605.158 323.953 604.719 323.624 604.28L317.148 607.132C316.929 606.913 316.819 606.584 316.599 606.364L321.319 601.098C320.99 600.769 320.661 600.33 320.331 600.001L314.624 604.17C314.404 603.951 314.184 603.731 313.965 603.512L317.587 597.368C317.148 597.039 316.819 596.82 316.38 596.491L311.66 601.757C311.44 601.647 311.111 601.428 310.892 601.318L313.087 594.516C312.648 594.296 312.209 594.077 311.77 593.858L308.257 600.001C307.928 599.892 307.708 599.782 307.379 599.672L308.147 592.651C307.708 592.541 307.16 592.431 306.721 592.322L304.525 599.124C304.196 599.124 303.867 599.014 303.647 599.014L302.879 591.993C302.659 591.993 302.33 591.993 302.11 591.993C301.891 591.993 301.562 591.993 301.342 591.993L300.574 599.014C300.245 599.014 299.915 599.124 299.696 599.124L297.5 592.322C297.061 592.431 296.513 592.541 296.073 592.651L296.842 599.672C296.513 599.782 296.293 599.892 295.964 600.001L292.451 593.858C292.012 594.077 291.573 594.296 291.134 594.516L293.329 601.318C293.11 601.428 292.781 601.647 292.561 601.757L287.841 596.491C287.402 596.82 287.073 597.039 286.634 597.368L290.146 603.512C289.927 603.731 289.707 603.951 289.488 604.17L283.78 600.001C283.451 600.33 283.121 600.769 282.792 601.098L287.512 606.365C287.292 606.584 287.183 606.803 286.963 607.132L280.487 604.28C280.268 604.719 279.938 605.158 279.719 605.597L285.426 609.766C285.317 610.095 285.207 610.314 285.097 610.643L278.182 609.107C277.963 609.546 277.853 610.095 277.743 610.533L284.219 613.386C284.109 613.715 284.109 613.934 284 614.264L276.865 614.264C276.755 614.702 276.755 615.251 276.755 615.8L283.67 617.226C283.67 617.335 283.67 617.555 283.67 617.665C283.67 617.774 283.67 617.994 283.67 618.103L276.755 619.53C276.755 620.078 276.865 620.517 276.865 621.066L284 621.066C284.109 621.395 284.109 621.724 284.219 621.943L277.743 624.796C277.853 625.235 278.072 625.783 278.182 626.222L285.097 624.796C285.207 625.125 285.317 625.344 285.426 625.673L279.609 629.842C279.829 630.281 280.048 630.72 280.377 631.159L286.853 628.306C287.073 628.526 287.183 628.855 287.402 629.074L282.682 634.34C283.012 634.67 283.341 635.108 283.67 635.438L289.378 631.269C289.597 631.488 289.817 631.707 290.037 631.927L286.414 638.071C286.853 638.4 287.183 638.619 287.622 638.948L292.342 633.682C292.561 633.792 292.89 634.011 293.11 634.121L290.915 640.923C291.354 641.142 291.793 641.362 292.232 641.581L295.744 635.438C296.073 635.547 296.293 635.657 296.622 635.767L295.854 642.788C296.293 642.898 296.842 643.008 297.281 643.117L299.476 636.315C299.805 636.315 300.135 636.425 300.354 636.425L301.232 643.446ZM304.855 617.884C304.855 619.42 303.647 620.627 302.11 620.627C300.574 620.627 299.366 619.42 299.366 617.884C299.366 616.348 300.574 615.141 302.11 615.141C303.647 615.032 304.855 616.348 304.855 617.884ZM302.11 603.841C309.355 603.841 315.282 609.327 316.05 616.348L308.587 616.348C307.928 613.386 305.294 611.192 302.11 611.192C301.452 611.192 300.793 611.301 300.245 611.411L296.513 604.938C298.159 604.28 300.135 603.841 302.11 603.841ZM288.061 617.884C288.061 613.276 290.366 609.107 293.768 606.584L297.5 613.057C296.183 614.264 295.415 616.019 295.415 617.884C295.415 619.749 296.183 621.504 297.5 622.711L293.768 629.184C290.256 626.661 288.061 622.492 288.061 617.884ZM296.403 630.72L300.135 624.247C300.684 624.467 301.342 624.576 302.001 624.576C305.184 624.576 307.818 622.382 308.477 619.42L315.941 619.42C315.172 626.441 309.245 631.927 302.001 631.927C300.025 631.927 298.159 631.488 296.403 630.72Z" fill="#E89F2B"/>
<path d="M319.673 617.884C319.673 608.12 311.77 600.221 302.001 600.221C292.232 600.221 284.329 608.12 284.329 617.884C284.329 627.648 292.232 635.547 302.001 635.547C311.77 635.547 319.673 627.648 319.673 617.884ZM302.11 620.627C300.574 620.627 299.366 619.42 299.366 617.884C299.366 616.348 300.574 615.141 302.11 615.141C303.647 615.141 304.855 616.348 304.855 617.884C304.855 619.42 303.647 620.627 302.11 620.627ZM296.513 604.938C298.269 604.17 300.135 603.732 302.11 603.732C309.355 603.732 315.282 609.217 316.05 616.238L308.587 616.238C307.928 613.276 305.294 611.082 302.11 611.082C301.452 611.082 300.793 611.192 300.244 611.301L296.513 604.938ZM288.061 617.884C288.061 613.276 290.366 609.107 293.768 606.584L297.5 613.057C296.183 614.264 295.415 616.019 295.415 617.884C295.415 619.749 296.183 621.504 297.5 622.711L293.768 629.184C290.256 626.661 288.061 622.492 288.061 617.884ZM300.244 624.247C300.793 624.467 301.452 624.576 302.11 624.576C305.294 624.576 307.928 622.382 308.587 619.42L316.05 619.42C315.282 626.441 309.355 631.927 302.11 631.927C300.135 631.927 298.159 631.488 296.513 630.72L300.244 624.247Z" fill="#E89F2B"/>
<path d="M318.246 617.884C318.246 608.888 311.001 601.647 302.11 601.647C293.11 601.647 285.865 608.888 285.865 617.774C285.865 626.771 293.11 634.011 302.001 634.011C311.001 634.011 318.246 626.771 318.246 617.884ZM286.414 617.884C286.414 609.217 293.439 602.305 302.11 602.305C310.782 602.305 317.697 609.327 317.697 617.994C317.697 626.661 310.672 633.573 302.001 633.573C293.439 633.463 286.414 626.441 286.414 617.884Z" fill="#D9D9D9"/>
<path d="M299.366 617.884C299.366 616.348 300.574 615.141 302.11 615.141C303.647 615.141 304.855 616.348 304.855 617.884C304.855 619.42 303.647 620.627 302.11 620.627C300.574 620.627 299.366 619.42 299.366 617.884ZM302.11 603.841C309.355 603.841 315.282 609.327 316.05 616.348L308.587 616.348C307.928 613.386 305.294 611.192 302.11 611.192C301.452 611.192 300.793 611.301 300.244 611.411L296.513 604.938C298.159 604.28 300.135 603.841 302.11 603.841ZM288.061 617.884C288.061 613.276 290.366 609.107 293.768 606.584L297.5 613.057C296.183 614.264 295.415 616.019 295.415 617.884C295.415 619.749 296.183 621.504 297.5 622.711L293.768 629.184C290.256 626.661 288.061 622.492 288.061 617.884ZM296.403 630.72L300.135 624.247C300.684 624.467 301.342 624.576 302.001 624.576C305.184 624.576 307.818 622.382 308.477 619.42L315.941 619.42C315.172 626.441 309.245 631.927 302.001 631.927C300.025 631.927 298.159 631.488 296.403 630.72Z" fill="white"/>
<path d="M454.682 599.343C454.682 587.933 442.169 578.608 426.692 578.608L426.692 620.078C442.169 620.078 454.682 610.753 454.682 599.343Z" fill="#E89F2B"/>
<path d="M337.674 632.585L337.674 577.072C337.674 571.148 342.503 566.321 348.431 566.321L427.68 566.321C433.607 566.321 438.437 571.148 438.437 577.072L438.437 632.585C438.437 638.509 433.607 643.337 427.68 643.337L348.431 643.337C342.503 643.337 337.784 638.509 337.674 632.585Z" fill="#DC432B"/>
<path d="M334.161 554.143L337.235 552.716C338.003 552.387 338.223 551.51 337.893 550.742L330.649 535.712C330.32 534.944 329.442 534.724 328.673 535.053L325.6 536.479C324.832 536.809 324.612 537.686 324.941 538.454L332.186 553.484C332.515 554.143 333.393 554.472 334.161 554.143Z" fill="#AA5A96"/>
<path d="M343.382 509.052L347.553 510.259C348.54 510.588 349.089 511.575 348.76 512.563L339.759 543.172C339.43 544.159 338.442 544.708 337.454 544.379L333.283 543.172C332.295 542.843 331.747 541.855 332.076 540.868L341.076 510.259C341.406 509.271 342.503 508.723 343.382 509.052Z" fill="#B3571C"/>
<path d="M324.283 488.536L326.807 485.026C327.356 484.148 328.563 484.038 329.332 484.587L344.26 495.229C345.138 495.777 345.248 496.984 344.699 497.752L342.174 501.263C341.625 502.14 340.418 502.25 339.65 501.701L324.722 491.06C323.844 490.511 323.624 489.414 324.283 488.536Z" fill="#B3571C"/>
<path d="M349.528 505.212C349.748 502.689 347.992 500.495 345.467 500.275C342.942 500.056 340.747 501.811 340.528 504.335C340.308 506.858 342.064 509.052 344.589 509.271C347.004 509.381 349.199 507.626 349.528 505.212Z" fill="#DC432B"/>
<path d="M344.15 647.396L343.93 650.797C343.93 651.565 343.162 652.223 342.394 652.223L325.71 651.455C324.941 651.455 324.283 650.687 324.283 649.919L324.502 646.518C324.502 645.75 325.271 645.092 326.039 645.092L342.723 645.86C343.601 645.97 344.15 646.628 344.15 647.396Z" fill="#AA5A96"/>
<path d="M241.741 624.028L241.521 619.749C241.521 618.762 240.643 617.994 239.655 617.994L207.824 619.31C206.836 619.31 206.067 620.188 206.067 621.175L206.287 625.454C206.287 626.441 207.165 627.209 208.153 627.209L239.984 625.893C240.972 625.893 241.741 625.015 241.741 624.028Z" fill="#B3571C"/>
<path d="M199.372 611.411L203.653 610.753C204.64 610.643 205.299 609.656 205.189 608.668L202.335 590.566C202.226 589.579 201.238 588.921 200.25 589.03L195.969 589.689C194.981 589.798 194.323 590.786 194.432 591.773L197.286 609.875C197.396 610.863 198.384 611.631 199.372 611.411Z" fill="#B3571C"/>
<path d="M207.165 611.74C209.141 613.276 209.58 616.019 208.043 617.994C206.506 619.969 203.762 620.407 201.787 618.871C199.811 617.335 199.372 614.593 200.908 612.618C202.335 610.643 205.189 610.204 207.165 611.74Z" fill="#DC432B"/>
<path d="M438.107 639.826L452.487 634.67L458.524 644.324L454.352 647.286L450.95 641.581L443.705 644.105L444.584 650.358L439.425 652.223L438.107 639.826Z" fill="#DC432B"/>
<path d="M218.58 654.198L208.592 652.333C207.604 652.113 206.946 651.236 207.165 650.248L210.787 630.062C211.007 629.074 211.885 628.416 212.873 628.636L222.861 630.501C223.849 630.72 224.508 631.598 224.288 632.585L220.666 652.662C220.446 653.649 219.459 654.308 218.58 654.198Z" fill="#AA5A96"/>
<path d="M216.495 636.535C207.275 634.779 198.384 640.923 196.628 650.139L230.106 656.282C231.862 647.067 225.825 638.29 216.495 636.535Z" fill="#D18C2B"/>
<path d="M171.931 619.201L178.956 613.496C179.724 612.837 180.822 612.947 181.48 613.715L194.432 629.623C195.091 630.391 194.981 631.488 194.213 632.146L187.188 637.851C186.42 638.51 185.322 638.4 184.664 637.632L171.711 621.724C171.053 620.956 171.163 619.859 171.931 619.201Z" fill="#B3571C"/>
<path d="M157.113 604.829L167.87 596.052C168.638 595.394 169.736 595.503 170.394 596.271L183.346 612.289C184.005 613.057 183.895 614.154 183.127 614.812L172.37 623.589C171.602 624.247 170.504 624.138 169.845 623.37L156.893 607.462C156.235 606.584 156.345 605.487 157.113 604.829Z" fill="#AA5A96"/>
<path d="M152.503 633.463C143.173 632.805 134.941 639.826 134.282 649.151L168.199 651.675C168.967 642.349 161.943 634.121 152.503 633.463Z" fill="#D18C2B"/>
<path d="M386.958 582.119C388.604 584.971 392.007 586.946 394.641 588.811C397.714 591.005 400.788 593.858 404.3 595.174C406.056 595.832 407.154 593.419 405.947 592.212C403.532 589.689 399.91 587.933 396.836 586.068C393.983 584.313 390.799 581.68 387.397 581.241C387.177 581.351 386.738 581.68 386.958 582.119Z" fill="#353831"/>
<path d="M390.36 597.039C393.543 595.832 396.068 592.87 398.483 590.457C400.678 588.262 404.739 585.52 405.398 582.338C405.617 581.131 404.739 580.144 403.532 580.473C400.349 581.131 397.714 585.3 395.519 587.494C393.214 589.908 390.251 592.541 389.153 595.723C388.824 596.491 389.702 597.259 390.36 597.039Z" fill="#353831"/>
<path d="M386.958 622.931C388.604 625.783 392.007 627.758 394.641 629.623C397.714 631.817 400.788 634.67 404.3 635.986C406.056 636.644 407.154 634.231 405.947 633.024C403.532 630.501 399.91 628.745 396.836 626.88C393.983 625.125 390.799 622.492 387.397 622.053C387.177 622.163 386.738 622.492 386.958 622.931Z" fill="#353831"/>
<path d="M390.36 637.851C393.543 636.644 396.068 633.682 398.483 631.269C400.678 629.074 404.739 626.332 405.398 623.15C405.617 621.943 404.739 620.956 403.532 621.285C400.349 621.943 397.714 626.112 395.519 628.306C393.214 630.72 390.251 633.353 389.153 636.535C388.824 637.303 389.702 638.071 390.36 637.851Z" fill="#353831"/>
<path d="M298.818 520.023C297.61 519.474 296.403 518.816 295.195 518.268C295.964 515.635 296.842 513.111 297.61 510.478C297.72 510.149 298.159 509.82 298.488 509.491C299.915 508.504 300.793 507.187 301.562 505.651C305.294 498.081 309.135 490.511 312.977 482.831C313.197 482.393 313.416 482.063 313.855 481.405C312.538 480.857 311.44 480.418 310.452 479.869C310.123 479.76 310.013 479.101 310.013 478.662C310.123 478.224 310.452 477.785 310.672 477.236C311.001 476.578 311.331 476.359 312.099 476.578C312.648 476.688 313.636 476.359 313.745 475.92C313.965 475.481 313.636 474.603 313.197 474.164C312.648 473.616 312.648 473.287 312.977 472.738C316.38 466.046 319.673 459.244 323.075 452.552C323.953 450.906 325.27 450.028 327.136 449.809C330.32 449.589 332.734 450.796 334.381 453.429C335.369 454.965 335.479 456.721 334.6 458.366C331.307 465.058 327.905 471.641 324.612 478.333C324.283 478.992 323.953 479.321 323.075 479.101C322.636 478.992 321.758 479.321 321.429 479.76C321.209 480.089 321.429 481.076 321.758 481.296C322.746 481.954 322.526 482.722 321.978 483.49C321.648 484.038 321.429 484.587 320.88 485.464C319.673 484.587 318.465 483.819 317.148 482.831C316.38 484.477 315.831 485.684 315.282 486.781C311.66 494.022 308.038 501.153 304.525 508.394C304.196 509.052 303.867 509.93 303.976 510.698C303.976 512.234 303.537 513.55 302.549 514.757C301.232 516.622 300.025 518.377 298.818 520.023ZM318.136 473.726C318.355 473.506 318.685 473.067 318.904 472.628C321.648 467.143 324.392 461.657 327.136 456.172C327.246 455.953 327.576 455.623 327.466 455.294C327.356 454.746 327.246 454.088 326.917 453.868C326.478 453.649 325.819 453.868 325.271 454.088C325.051 454.197 324.941 454.636 324.722 454.965C321.978 460.341 319.343 465.717 316.599 471.202C316.489 471.531 316.27 471.86 316.16 472.19C316.05 473.177 316.928 474.055 318.136 473.726ZM322.746 476.029C322.965 475.81 323.295 475.481 323.514 475.042C326.368 469.447 329.112 463.961 331.856 458.366C331.966 458.147 332.076 457.818 332.186 457.489C332.295 456.501 331.307 455.623 330.429 456.172C329.99 456.391 329.661 456.83 329.442 457.269C326.697 462.755 323.953 468.24 321.209 473.726C321.099 474.055 320.88 474.384 320.88 474.713C320.77 475.591 321.648 476.359 322.746 476.029Z" fill="#353831"/>
<path d="M321.319 492.705L329.661 479.869L321.758 471.751L317.807 475.042L322.526 479.76L318.355 486.232L312.538 483.929L309.465 488.427L321.319 492.705Z" fill="#DC432B"/>
<path d="M312.209 542.623L261.278 542.623C260.62 542.623 260.071 542.075 260.071 541.416L260.071 537.138C260.071 536.479 260.62 535.931 261.278 535.931L312.209 535.931C312.867 535.931 313.416 536.479 313.416 537.138L313.416 541.416C313.416 542.075 312.867 542.623 312.209 542.623Z" fill="#BC2F20"/>
<path d="M289.049 539.661C294.207 523.534 284.987 505.871 268.852 500.714C267.206 500.166 266.437 502.799 268.084 503.347C282.792 507.955 291.134 524.192 286.414 538.893C285.865 540.648 288.5 541.307 289.049 539.661Z" fill="#353831"/>
<path d="M294.866 532.091C296.622 532.091 296.622 529.348 294.866 529.348C293.11 529.458 293.11 532.091 294.866 532.091Z" fill="#353831"/>
<path d="M277.084 519.365C278.841 519.365 278.841 516.622 277.084 516.622C275.328 516.732 275.328 519.365 277.084 519.365Z" fill="#353831"/>
<path d="M267.864 519.913C266.328 519.913 264.791 519.255 263.913 518.048C263.583 517.609 263.364 517.061 263.254 516.512C263.144 516.512 263.144 516.512 263.035 516.512C261.608 516.183 260.51 514.867 260.291 513.331C260.181 512.672 260.181 512.014 260.291 511.246C259.961 511.137 259.742 511.027 259.412 510.917C259.193 510.807 257.766 510.149 257.327 508.504C257.107 507.845 257.107 507.077 257.327 506.419C256.229 505.87 255.132 504.993 254.583 503.786C253.924 502.579 253.924 501.263 254.583 499.946C254.802 499.617 255.132 499.507 255.461 499.617C255.79 499.836 255.9 500.166 255.79 500.495C255.241 501.592 255.461 502.469 255.79 503.128C256.229 503.896 256.888 504.664 257.766 504.993C257.986 504.554 258.205 504.115 258.534 503.567C259.303 502.36 261.388 501.592 262.596 501.811C263.474 501.921 264.023 502.36 264.242 503.018C264.462 503.676 264.242 504.335 263.693 504.993C262.596 506.09 260.4 506.858 258.644 506.638C258.534 507.187 258.534 507.626 258.644 507.955C258.973 509.052 259.961 509.491 259.961 509.491C260.181 509.601 260.4 509.71 260.62 509.71C260.73 509.491 260.839 509.272 260.839 509.052C261.498 507.626 262.266 506.858 263.254 506.529C264.023 506.309 264.901 506.419 265.559 506.968C266.108 507.406 266.328 507.955 266.328 508.613C266.218 509.491 265.449 510.369 264.352 510.698C263.583 510.917 262.596 511.137 261.608 511.137C261.498 511.685 261.498 512.234 261.498 512.782C261.717 513.77 262.266 514.538 263.035 514.867C263.035 514.757 263.035 514.647 263.144 514.538C263.364 513.44 264.023 512.453 264.901 511.905C265.889 511.246 267.315 511.246 268.084 512.234C268.633 513.002 268.413 514.099 267.864 514.757C267.425 515.306 266.657 515.635 265.998 515.964C265.559 516.183 265.12 516.293 264.571 516.403C264.681 516.732 264.791 516.951 265.01 517.171C265.889 518.377 267.864 518.926 269.401 518.158C269.73 518.048 270.169 518.158 270.279 518.487C270.389 518.816 270.279 519.255 269.95 519.365C269.291 519.804 268.523 519.913 267.864 519.913ZM266.437 512.892C266.218 512.892 265.889 513.002 265.669 513.111C265.12 513.44 264.681 514.099 264.571 514.867L264.571 514.976C264.901 514.867 265.23 514.757 265.559 514.647C266.108 514.428 266.547 514.208 266.876 513.879C267.096 513.55 267.206 513.221 266.986 513.002C266.876 512.892 266.657 512.892 266.437 512.892ZM264.023 507.845C263.913 507.845 263.803 507.845 263.693 507.845C263.035 508.065 262.596 508.613 262.047 509.71C262.047 509.82 262.047 509.82 261.937 509.82C262.596 509.71 263.254 509.601 263.803 509.381C264.352 509.271 264.791 508.833 264.901 508.504C264.901 508.284 264.791 508.174 264.681 508.065C264.571 507.955 264.352 507.845 264.023 507.845ZM258.973 505.322C260.181 505.322 261.827 504.883 262.596 504.115C262.925 503.786 262.815 503.567 262.815 503.457C262.815 503.347 262.596 503.237 262.266 503.237C261.278 503.128 259.961 503.676 259.522 504.444C259.303 504.664 259.193 504.993 258.973 505.322Z" fill="#353831"/>
<path d="M210.458 566.54C210.238 566.54 210.129 566.43 209.909 566.321C208.263 564.455 208.043 561.493 209.47 559.519C209.909 558.97 210.348 558.531 210.897 558.202C210.897 558.092 210.897 557.983 210.897 557.983C210.787 556.447 211.775 554.801 213.312 554.033C213.97 553.704 214.739 553.485 215.507 553.375C215.507 553.046 215.507 552.607 215.507 552.278C215.507 551.949 215.836 550.303 217.373 549.316C218.032 548.877 218.8 548.657 219.678 548.548C219.788 547.121 220.446 545.695 221.544 544.708C222.642 543.611 224.069 543.172 225.496 543.391C225.825 543.501 226.154 543.83 226.044 544.159C225.935 544.488 225.715 544.817 225.276 544.708C223.959 544.488 222.971 545.147 222.422 545.585C221.654 546.353 221.105 547.341 220.995 548.438C221.544 548.548 222.093 548.657 222.751 548.767C224.288 549.206 225.715 551.071 225.935 552.497C226.044 553.375 225.825 554.143 225.166 554.582C224.508 555.02 223.739 555.02 222.971 554.691C221.434 553.923 219.898 551.729 219.568 549.864C219.019 549.974 218.471 550.084 218.032 550.413C216.934 551.181 216.824 552.387 216.824 552.387C216.824 552.717 216.824 552.936 216.824 553.265C217.044 553.265 217.373 553.265 217.702 553.375C219.349 553.594 220.556 554.143 221.215 555.02C221.764 555.679 221.873 556.666 221.544 557.544C221.325 558.202 220.776 558.751 220.117 558.86C219.129 559.08 218.141 558.531 217.263 557.434C216.714 556.666 216.166 555.679 215.836 554.582C215.068 554.691 214.519 554.801 213.97 555.13C212.982 555.679 212.214 556.666 212.324 557.653C212.434 557.653 212.653 557.544 212.873 557.544C214.08 557.434 215.397 557.763 216.275 558.421C217.263 559.189 217.812 560.725 217.044 561.713C216.385 562.59 215.178 562.7 214.3 562.371C213.531 562.042 212.982 561.493 212.434 560.835C212.104 560.396 211.775 559.957 211.446 559.409C211.117 559.628 210.897 559.848 210.677 560.177C209.69 561.603 209.799 563.907 211.117 565.223C211.336 565.553 211.336 565.882 211.117 566.211C210.787 566.54 210.677 566.54 210.458 566.54ZM212.653 559.08C212.873 559.519 213.092 559.848 213.422 560.177C213.861 560.725 214.3 561.164 214.739 561.274C215.068 561.384 215.617 561.384 215.836 561.054C216.056 560.725 215.836 559.957 215.288 559.628C214.739 559.08 213.861 558.86 212.982 558.97C212.873 559.08 212.763 559.08 212.653 559.08ZM217.263 554.801C217.593 555.569 218.032 556.227 218.361 556.776C218.69 557.215 219.239 557.763 219.788 557.653C220.007 557.544 220.227 557.324 220.227 557.215C220.337 556.776 220.337 556.337 220.117 556.008C219.678 555.459 218.8 555.02 217.593 554.911C217.483 554.801 217.373 554.801 217.263 554.801ZM221.105 549.974C221.434 551.4 222.642 553.046 223.739 553.485C224.288 553.704 224.508 553.594 224.617 553.485C224.727 553.375 224.837 553.155 224.727 552.826C224.508 551.729 223.41 550.522 222.532 550.193C221.983 550.084 221.544 550.084 221.105 549.974Z" fill="#353831"/>
<path d="M301.342 534.834C300.464 534.834 299.586 534.614 298.708 534.285C298.379 534.176 298.269 533.737 298.379 533.408C298.488 533.078 298.927 532.969 299.257 533.078C301.232 534.066 303.867 533.408 305.074 531.762C305.403 531.433 305.513 530.884 305.623 530.445C304.964 530.336 304.196 530.116 303.647 529.897C302.769 529.568 302.001 529.129 301.342 528.471C300.684 527.703 300.354 526.386 301.123 525.399C302.001 524.192 303.757 524.302 304.855 525.07C305.952 525.728 306.721 526.935 306.94 528.361C306.94 528.58 307.05 528.8 307.05 529.019C308.257 528.69 309.135 527.593 309.465 526.167C309.574 525.399 309.574 524.631 309.355 523.753C307.928 523.753 306.721 523.424 305.733 523.095C304.306 522.656 303.428 521.669 303.318 520.572C303.208 519.804 303.537 519.145 304.196 518.597C304.964 517.939 306.062 517.719 306.94 518.048C308.147 518.487 309.135 519.474 309.904 521.23C310.013 521.559 310.233 521.888 310.343 522.217C310.672 522.108 311.111 521.998 311.44 521.888C311.55 521.778 312.867 521.23 313.306 519.804C313.526 519.145 313.526 518.487 313.306 517.829C311.111 518.158 308.147 517.28 306.83 515.854C305.952 514.976 305.952 514.099 306.172 513.55C306.391 512.672 307.16 512.234 308.147 512.124C309.684 511.905 312.209 512.782 313.197 514.318C313.636 514.976 313.965 515.635 314.184 516.183C315.282 515.635 316.38 514.647 316.929 513.55C317.368 512.782 317.697 511.466 316.929 510.039C316.709 509.71 316.929 509.271 317.258 509.162C317.587 509.052 318.026 509.162 318.136 509.491C318.904 511.027 318.904 512.672 318.136 514.208C317.368 515.635 316.05 516.951 314.624 517.5C314.843 518.487 314.843 519.474 314.624 520.242C314.075 522.327 312.209 523.095 311.989 523.205C311.55 523.424 311.111 523.534 310.672 523.643C310.892 524.631 310.892 525.509 310.782 526.386C310.452 528.361 309.026 529.897 307.379 530.336C307.269 530.336 307.16 530.336 307.05 530.445C306.94 531.213 306.611 531.872 306.172 532.53C305.184 533.956 303.318 534.834 301.342 534.834ZM303.208 525.728C302.879 525.728 302.55 525.838 302.44 526.057C302.11 526.386 302.33 527.044 302.659 527.483C303.098 527.922 303.757 528.251 304.415 528.58C304.964 528.8 305.513 529.019 306.062 529.019C306.062 528.91 306.062 528.69 305.952 528.58C305.733 527.593 305.184 526.715 304.415 526.167C303.976 525.947 303.537 525.728 303.208 525.728ZM306.281 519.365C305.952 519.365 305.513 519.474 305.184 519.694C304.964 519.804 304.745 520.133 304.745 520.462C304.855 521.12 305.623 521.559 306.281 521.778C307.05 521.998 308.038 522.327 309.135 522.327C309.026 522.217 309.026 521.998 308.916 521.778C308.257 520.352 307.599 519.584 306.721 519.365C306.611 519.365 306.391 519.365 306.281 519.365ZM308.806 513.331C308.696 513.331 308.587 513.331 308.477 513.331C308.038 513.44 307.708 513.55 307.599 513.879C307.599 513.989 307.489 514.318 307.928 514.867C308.916 515.964 311.221 516.622 312.977 516.512C312.758 516.073 312.428 515.525 312.099 514.976C311.66 514.099 310.013 513.331 308.806 513.331Z" fill="#353831"/>
<path d="M283.451 538.454C284.219 532.42 281.365 526.276 275.438 523.863C268.303 520.901 261.608 525.618 257.327 530.994C250.741 539.113 246.351 549.645 243.277 559.519C239.326 572.245 238.777 586.288 229.776 596.929C228.679 598.246 230.545 600.221 231.752 598.904C240.423 588.592 241.631 575.756 245.143 563.249C247.448 554.911 250.741 546.792 255.132 539.332C257.546 535.163 260.4 530.445 264.571 527.812C272.694 522.656 282.024 529.239 280.816 538.454C280.487 540.21 283.231 540.21 283.451 538.454Z" fill="#353831"/>
<path d="M325.161 549.864C325.161 550.961 325.051 551.949 325.161 553.046C325.161 553.265 325.49 553.265 325.49 553.046C325.6 551.949 325.49 550.961 325.49 549.864C325.49 549.645 325.161 549.645 325.161 549.864Z" fill="#BC2F20"/>
<path d="M249.314 555.24C248.326 556.886 247.997 559.08 248.656 560.945C248.765 561.274 249.314 561.384 249.424 560.945C249.753 559.189 249.863 557.215 249.753 555.459C249.753 555.13 249.424 555.02 249.314 555.24Z" fill="#BC2F20"/>
<path d="M323.514 554.033C323.734 554.362 323.953 554.582 324.173 554.801C324.283 554.911 324.502 554.801 324.392 554.582C324.173 554.252 324.063 554.033 323.734 553.814C323.734 553.594 323.405 553.814 323.514 554.033Z" fill="#BC2F20"/>
<path d="M326.917 553.265C326.807 554.362 326.917 555.459 326.917 556.556C326.917 557.653 326.807 558.75 326.917 559.848C326.917 560.067 327.356 560.177 327.466 559.957C327.795 557.873 327.466 555.24 326.917 553.265C326.917 553.155 326.917 553.155 326.917 553.265Z" fill="#BC2F20"/>
<path d="M244.046 630.172C243.936 630.83 243.826 631.378 243.936 632.037C243.936 632.366 244.375 632.366 244.375 632.037C244.485 631.378 244.375 630.83 244.265 630.172C244.265 630.062 244.046 630.062 244.046 630.172Z" fill="#BC2F20"/>
<path d="M245.363 630.72C245.253 631.707 245.143 632.695 245.253 633.682C245.253 633.902 245.582 633.902 245.692 633.682C245.912 632.695 245.692 631.707 245.582 630.72C245.692 630.501 245.473 630.501 245.363 630.72Z" fill="#BC2F20"/>
<path d="M246.899 634.011C246.79 634.67 246.899 635.547 247.119 636.206C247.229 636.425 247.558 636.425 247.558 636.096C247.558 635.438 247.448 634.56 247.119 634.011C247.009 633.902 246.899 633.902 246.899 634.011Z" fill="#BC2F20"/>
<path d="M244.375 634.779C244.375 635.218 244.594 635.547 244.814 635.986C244.924 636.096 245.143 635.986 245.033 635.876C244.924 635.328 244.814 634.999 244.375 634.779C244.375 634.67 244.485 634.67 244.375 634.779Z" fill="#BC2F20"/>
<path d="M286.085 565.333C286.085 566.101 285.865 566.979 286.195 567.637C286.305 567.966 286.744 567.966 286.853 567.637C287.073 566.869 286.963 566.101 286.963 565.333C286.853 564.785 286.085 564.785 286.085 565.333Z" fill="#BC2F20"/>
<path d="M286.853 565.333C286.744 565.882 286.634 566.321 286.853 566.759C286.963 567.089 287.402 567.089 287.512 566.759C287.622 566.211 287.512 565.772 287.512 565.333C287.402 564.894 286.853 564.894 286.853 565.333Z" fill="#BC2F20"/>
<path d="M287.402 561.713C287.622 563.139 287.512 564.675 287.841 565.991C287.841 566.211 288.171 566.211 288.171 565.991C288.61 564.675 288.061 562.92 287.731 561.603C287.731 561.384 287.402 561.493 287.402 561.713Z" fill="#BC2F20"/>
<path d="M286.195 570.928C286.085 571.477 285.975 572.135 286.524 572.574C286.634 572.684 286.963 572.574 286.963 572.355C286.963 571.916 286.744 571.587 286.853 571.038C286.853 570.709 286.304 570.489 286.195 570.928Z" fill="#BC2F20"/>
<path d="M247.448 579.157C247.558 579.815 247.558 580.363 247.997 580.802C248.107 581.022 248.436 580.912 248.436 580.692C248.436 580.034 248.217 579.595 247.887 579.047C247.668 578.827 247.338 578.937 247.448 579.157Z" fill="#BC2F20"/>
<path d="M248.217 578.279C248.546 578.608 248.546 578.827 248.656 579.266C248.765 579.486 248.985 579.595 249.095 579.376C249.314 578.827 249.095 578.279 248.656 577.95C248.436 577.511 247.997 577.95 248.217 578.279Z" fill="#BC2F20"/>
<path d="M258.644 546.683C258.534 547.67 258.425 548.548 258.534 549.425C258.534 549.645 258.864 549.645 258.973 549.425C259.083 548.438 258.973 547.56 258.864 546.683C258.864 546.463 258.644 546.463 258.644 546.683Z" fill="#BC2F20"/>
<path d="M259.303 547.341C259.303 548.438 259.193 549.754 259.412 550.851C259.412 551.071 259.742 551.071 259.852 550.851C260.291 549.754 259.961 548.438 259.632 547.341C259.632 547.121 259.303 547.121 259.303 547.341Z" fill="#BC2F20"/>
<path d="M270.06 604.061C269.401 605.706 269.291 607.462 270.169 608.998C270.279 609.217 270.608 609.107 270.499 608.888C270.169 607.352 269.95 605.816 270.499 604.28C270.718 603.841 270.169 603.731 270.06 604.061Z" fill="#BC2F20"/>
<path d="M267.096 603.622C267.096 603.951 267.096 604.28 267.096 604.609C267.206 604.829 267.425 604.829 267.535 604.609C267.645 604.28 267.645 604.061 267.535 603.622C267.645 603.293 267.096 603.293 267.096 603.622Z" fill="#BC2F20"/>
<path d="M314.294 577.511C314.075 578.279 313.965 578.827 313.965 579.595C313.965 579.815 314.294 579.925 314.404 579.705C314.733 579.047 314.843 578.389 314.953 577.621C315.063 577.182 314.404 577.072 314.294 577.511Z" fill="#BC2F20"/>
<path d="M315.392 579.815C315.282 580.583 314.953 581.351 314.843 582.009C314.843 582.228 315.063 582.558 315.282 582.228C315.831 581.57 315.941 580.583 315.721 579.705C315.611 579.595 315.392 579.595 315.392 579.815Z" fill="#BC2F20"/>
<path d="M353.59 577.73C353.48 578.059 353.37 578.169 353.26 578.498C353.26 578.718 353.26 579.047 353.48 579.157C353.699 579.376 353.809 579.376 354.138 579.376C354.358 579.376 354.577 579.157 354.577 578.937C354.687 578.608 354.687 578.498 354.687 578.169C354.797 577.401 353.919 577.182 353.59 577.73Z" fill="#BC2F20"/>
<path d="M350.516 580.144C350.077 580.692 349.858 581.241 350.187 581.79C350.297 582.009 350.626 582.009 350.736 581.68C350.845 581.241 350.736 580.802 350.845 580.254C350.955 580.144 350.736 579.925 350.516 580.144Z" fill="#BC2F20"/>
<path d="M425.814 575.536C425.924 575.975 425.814 576.304 425.704 576.743C425.594 576.962 425.924 577.072 426.034 576.853C426.363 576.414 426.363 575.975 426.363 575.426C426.363 575.097 425.814 575.207 425.814 575.536Z" fill="#BC2F20"/>
<path d="M427.57 576.194C427.46 576.743 427.46 577.072 427.57 577.621C427.57 577.73 427.79 577.73 427.899 577.621C428.009 577.182 427.899 576.743 427.899 576.194C427.79 576.085 427.68 576.085 427.57 576.194Z" fill="#BC2F20"/>
<path d="M428.778 625.454C428.448 626.003 428.009 626.441 427.79 626.99C427.68 627.209 428.009 627.319 428.119 627.209C428.558 626.771 428.778 626.112 428.997 625.564C428.997 625.344 428.887 625.344 428.778 625.454Z" fill="#BC2F20"/>
<path d="M426.033 624.028C426.033 624.686 426.033 625.235 426.033 625.893C426.033 626.112 426.363 626.112 426.363 625.893C426.363 625.235 426.363 624.686 426.363 624.028C426.253 623.918 426.033 623.918 426.033 624.028Z" fill="#BC2F20"/>
<path d="M358.858 628.636C359.187 629.623 359.956 630.939 360.944 631.488C361.163 631.598 361.602 631.378 361.493 631.049C361.163 630.062 360.285 628.965 359.517 628.306C359.187 628.087 358.748 628.306 358.858 628.636Z" fill="#BC2F20"/>
<path d="M356.224 631.707C356.443 632.366 356.663 633.024 357.102 633.573C357.322 633.792 357.541 633.573 357.541 633.353C357.431 632.695 357.102 632.146 356.773 631.488C356.663 631.159 356.114 631.378 356.224 631.707Z" fill="#BC2F20"/>
<path d="M416.374 599.892C415.606 600.331 415.167 601.537 416.045 602.086C416.155 602.196 416.484 602.086 416.484 601.866C416.594 601.318 416.374 600.879 416.813 600.33C417.033 600.001 416.594 599.672 416.374 599.892Z" fill="#BC2F20"/>
<path d="M351.175 460.89C351.504 461.548 351.833 462.206 352.163 462.864C352.163 462.974 352.382 462.974 352.492 462.974C353.041 462.974 353.59 462.974 354.138 462.974C354.358 462.974 354.577 462.864 354.687 462.645C355.016 462.206 355.236 461.767 355.455 461.219C355.565 460.999 355.785 460.89 356.004 460.999C356.773 461.219 357.431 461.438 358.2 461.658C358.2 462.316 358.2 462.974 358.2 463.632C358.2 463.961 358.2 464.181 358.639 464.4C358.968 464.51 359.297 464.729 359.517 464.949C360.066 465.388 360.505 465.278 360.944 464.949C361.383 464.62 361.822 464.4 362.151 464.181C362.81 464.839 363.468 465.388 364.127 465.936C363.798 466.594 363.468 467.143 363.029 467.692C362.81 468.021 362.81 468.24 363.029 468.459C363.249 468.789 363.468 469.118 363.578 469.447C363.798 469.995 364.127 470.105 364.566 470.105C365.005 470.105 365.444 470.105 365.883 470.105C366.212 470.105 366.322 470.215 366.432 470.544C366.542 471.202 366.761 471.861 366.981 472.409C366.981 472.519 366.981 472.519 366.981 472.628C366.322 472.958 365.773 473.287 365.115 473.616C365.005 473.726 364.895 473.945 364.895 474.055C364.895 474.713 364.676 475.481 365.005 475.92C365.334 476.468 366.103 476.688 366.651 477.017C366.871 477.127 366.981 477.346 366.871 477.565C366.651 478.114 366.542 478.772 366.322 479.43C366.212 479.76 366.103 479.869 365.773 479.76C365.224 479.76 364.676 479.76 364.237 479.65C363.907 479.65 363.798 479.76 363.688 479.979C363.468 480.418 363.139 480.966 362.919 481.405C362.81 481.625 362.7 481.844 362.919 482.063C363.249 482.612 363.578 483.161 363.907 483.819C363.688 484.038 363.468 484.148 363.358 484.367C363.139 484.587 362.919 484.697 362.81 484.916C362.041 485.684 362.041 485.684 361.163 485.135C360.395 484.587 359.846 484.587 359.078 485.026C358.2 485.464 357.87 486.013 357.98 487C358.09 487.988 357.98 487.988 357.102 488.207C356.553 488.317 355.895 488.646 355.455 488.536C355.016 488.427 354.907 487.659 354.687 487.22C354.468 486.781 354.248 486.562 353.699 486.671C353.26 486.781 352.821 486.671 352.382 486.671C352.053 486.671 351.943 486.781 351.724 487C351.394 487.549 351.065 488.098 350.736 488.646C349.967 488.427 349.309 488.207 348.54 487.988C348.211 487.878 348.211 487.768 348.211 487.439C348.211 486.891 348.211 486.452 348.211 485.903C348.211 485.684 348.101 485.464 347.882 485.355C347.443 485.026 346.894 484.697 346.345 484.477C346.235 484.367 345.906 484.367 345.796 484.477C345.357 484.697 344.808 485.026 344.369 485.245C344.26 485.355 344.04 485.355 343.93 485.245C343.381 484.697 342.833 484.148 342.284 483.49C342.613 482.941 342.942 482.393 343.272 481.844C343.381 481.734 343.381 481.405 343.272 481.296C343.052 480.747 342.723 480.308 342.394 479.76C342.284 479.54 342.064 479.43 341.845 479.43C341.186 479.43 340.637 479.43 340.089 479.43C340.089 479.321 339.979 479.321 339.979 479.321C339.869 478.882 339.759 478.333 339.54 477.895C339.32 476.907 339.32 476.907 340.198 476.468C340.967 476.139 341.406 475.591 341.186 474.713C341.076 474.494 341.186 474.164 341.186 473.945C341.296 473.506 341.076 473.177 340.637 473.067C340.198 472.848 339.54 472.628 339.43 472.299C339.32 471.97 339.65 471.312 339.759 470.873C340.089 469.886 340.089 469.886 341.076 469.886C341.296 469.886 341.515 469.886 341.845 469.886C342.174 469.886 342.284 469.776 342.394 469.557C342.723 469.008 343.052 468.569 343.272 468.021C343.381 467.911 343.381 467.582 343.272 467.472C342.942 466.924 342.613 466.375 342.503 466.046C343.162 465.278 343.711 464.62 344.26 463.961C344.699 464.291 345.138 464.51 345.577 464.729C346.016 465.059 346.345 465.168 346.894 464.729C347.223 464.51 347.662 464.291 347.992 464.071C348.321 463.961 348.431 463.742 348.431 463.413C348.431 462.974 348.431 462.425 348.431 461.987C348.431 461.658 348.54 461.548 348.87 461.438C349.528 461.328 350.187 461.109 350.736 460.89C350.955 460.89 351.065 460.89 351.175 460.89ZM361.383 474.932C361.383 470.325 357.761 466.594 353.26 466.594C348.76 466.594 345.028 470.325 345.028 474.823C345.028 479.321 348.65 482.941 353.26 482.941C357.651 482.941 361.383 479.321 361.383 474.932Z" fill="#353831"/>
<path d="M248.985 466.594C248.326 467.472 248.765 468.569 249.863 468.789C250.192 468.898 250.522 468.898 250.851 469.008C252.827 469.447 252.827 469.447 252.827 471.531C252.827 472.08 252.717 472.409 252.168 472.519C251.509 472.738 250.851 472.958 250.192 473.177C249.095 473.616 248.765 474.713 249.534 475.591C249.753 475.81 249.973 476.139 250.192 476.359C251.509 477.785 251.509 477.785 250.302 479.43C249.973 479.869 249.643 480.089 249.095 479.869C248.436 479.65 247.668 479.43 247.009 479.211C246.131 478.992 245.143 479.76 245.143 480.637C245.143 481.405 245.253 482.173 245.363 483.051C245.363 483.27 245.363 483.599 245.253 483.709C244.485 484.038 243.716 484.477 242.948 484.587C242.619 484.587 242.289 484.038 241.96 483.599C241.74 483.27 241.521 483.051 241.301 482.722C240.314 481.515 239.326 481.515 238.448 482.831C238.118 483.38 237.789 483.929 237.46 484.477C237.35 484.587 237.13 484.916 237.021 484.916C236.252 484.806 235.374 484.587 234.716 484.258C234.496 484.148 234.496 483.38 234.386 482.941C234.277 482.502 234.386 481.954 234.386 481.515C234.386 480.418 233.289 479.65 232.301 480.089C231.642 480.418 230.984 480.637 230.325 480.966C230.106 481.076 229.776 481.076 229.666 480.966C229.118 480.418 228.459 479.76 228.24 478.992C228.13 478.663 228.679 478.114 229.008 477.565C229.118 477.346 229.337 477.127 229.447 476.797C230.325 475.591 229.886 474.603 228.459 474.164C227.801 474.055 227.252 473.835 226.593 473.726C226.374 473.726 226.154 473.506 226.154 473.396C226.044 472.519 225.935 471.641 226.044 470.873C226.044 470.544 226.813 470.434 227.252 470.215C227.691 469.995 228.24 469.886 228.788 469.666C229.557 469.337 229.776 468.13 229.337 467.582C228.679 466.814 228.02 466.046 227.361 465.278C227.801 464.62 228.13 463.961 228.679 463.303C228.788 463.084 229.227 462.974 229.557 462.974C230.325 463.084 230.984 463.413 231.752 463.523C232.74 463.852 233.618 463.084 233.508 461.987C233.508 461.658 233.398 461.438 233.398 461.109C233.289 458.915 233.289 458.915 235.484 458.366C235.703 458.257 236.143 458.476 236.362 458.695C236.911 459.354 237.35 460.012 237.899 460.67C238.118 460.89 238.448 460.999 238.777 461.109C239.875 461.328 240.094 460.341 240.533 459.683C241.74 457.708 241.74 457.708 243.826 458.586C244.046 458.695 244.265 459.024 244.375 459.354C244.485 460.122 244.375 460.89 244.485 461.767C244.485 462.096 244.814 462.425 245.033 462.755C245.692 463.523 246.351 462.974 246.899 462.755C249.314 461.767 249.314 461.767 250.851 464.071C250.083 465.059 249.534 465.826 248.985 466.594ZM231.972 471.422C231.752 475.262 234.935 478.663 238.996 478.992C242.838 479.211 246.351 476.029 246.57 471.97C246.79 468.13 243.606 464.729 239.545 464.51C235.594 464.291 232.191 467.362 231.972 471.422Z" fill="#353831"/>
<path d="M300.464 484.038C299.915 484.477 299.915 485.903 300.574 486.232C301.562 486.671 301.671 487.22 301.232 488.098C301.123 488.317 301.123 488.536 301.013 488.756C300.244 488.866 299.366 488.427 298.817 489.524C298.159 490.621 299.037 491.06 299.257 492.047C299.037 492.157 298.708 492.376 298.488 492.596C298.049 493.144 297.5 493.254 297.061 492.705C296.403 492.047 295.964 492.596 295.305 492.815C294.756 493.034 294.756 493.473 294.756 493.912C294.866 494.68 294.537 494.9 293.768 495.009C293.11 495.119 292.561 495.338 292.341 494.461C292.232 494.132 291.902 493.802 291.573 493.693C290.695 493.583 289.817 493.473 289.488 494.57C289.488 494.79 289.268 494.9 289.158 495.119C288.829 495.009 288.5 494.9 288.17 494.9C287.841 494.79 287.622 494.68 287.292 494.57C287.292 494.132 287.292 493.693 287.292 493.364C287.292 492.596 285.865 491.828 285.317 492.267C284.438 492.925 283.89 492.705 283.341 491.937C283.231 491.718 283.012 491.608 282.902 491.389C283.121 491.06 283.231 490.84 283.451 490.511C283.89 489.743 283.121 488.207 282.243 488.317C281.365 488.427 281.036 487.988 280.926 487.22C280.926 487 280.816 486.671 280.816 486.452C280.926 486.342 281.036 486.232 281.146 486.232C281.694 485.903 282.243 485.684 282.243 484.806C282.243 483.929 282.024 483.49 281.255 483.161C280.487 482.831 281.146 482.173 281.146 481.734C281.146 481.296 281.365 480.966 281.914 481.076C282.243 481.076 282.792 481.076 283.012 480.857C283.89 479.979 283.89 479.43 283.341 478.443C283.231 478.333 283.231 478.224 283.121 478.004C283.56 477.565 284.109 477.127 284.548 476.688C285.317 477.017 285.756 477.675 286.853 477.127C287.951 476.578 287.512 475.7 287.731 474.932C288.39 474.823 288.939 474.603 289.597 474.494C289.817 474.823 290.036 475.152 290.146 475.481C290.366 476.249 291.024 476.029 291.573 476.139C292.122 476.249 292.451 475.92 292.561 475.481C292.89 474.713 293.329 474.494 294.098 474.823C294.427 474.932 294.646 475.042 294.976 475.152C294.976 475.591 295.086 475.92 294.976 476.249C294.756 477.017 295.415 477.127 295.854 477.456C296.293 477.785 296.622 477.785 297.061 477.456C297.72 476.797 298.378 477.017 298.817 477.675C298.927 477.895 299.147 478.114 299.366 478.224C299.147 479.101 298.269 479.54 298.817 480.637C299.366 481.734 300.244 481.186 301.123 481.405C301.781 483.161 301.781 483.161 300.464 484.038ZM285.097 485.135C285.097 488.536 287.841 491.279 291.244 491.279C294.537 491.279 297.391 488.536 297.391 485.135C297.391 481.734 294.646 478.992 291.244 478.992C287.841 478.992 285.097 481.734 285.097 485.135Z" fill="#353831"/>
<path d="M312.757 425.344C312.209 425.563 311.989 425.234 311.66 425.014C310.782 424.247 309.684 424.137 308.696 425.014C308.367 425.344 308.038 425.563 307.599 425.234C307.16 425.014 307.16 424.685 307.16 424.246C307.269 423.04 306.501 422.052 305.403 421.723C305.074 421.613 304.745 421.284 304.635 421.065C304.415 420.626 304.635 420.297 305.074 419.968C306.062 419.419 306.391 418.212 305.842 417.115C305.733 416.786 305.733 416.347 305.842 416.128C306.062 415.799 306.391 415.47 306.94 415.689C308.038 416.128 309.026 415.689 309.684 414.592C309.794 414.373 310.233 414.044 310.562 414.153C310.891 414.153 311.331 414.373 311.44 414.702C311.989 415.909 312.757 416.347 314.075 416.128C314.404 416.128 314.733 416.347 315.062 416.567C315.392 416.896 315.392 417.225 315.172 417.664C314.514 418.761 314.623 419.639 315.721 420.407C316.16 420.736 316.16 421.065 316.05 421.504C315.941 422.052 315.611 422.162 315.172 422.162C314.075 422.272 313.306 423.149 313.306 424.356C313.416 424.685 313.416 425.124 312.757 425.344ZM310.343 417.006C308.696 417.006 307.379 418.322 307.489 419.968C307.489 421.504 308.806 422.82 310.343 422.82C311.879 422.82 313.197 421.504 313.197 419.968C313.197 418.322 311.989 417.006 310.343 417.006Z" fill="#353831"/>
<path d="M120.232 641.91C119.684 642.13 119.464 641.801 119.135 641.581C118.257 640.813 117.159 640.704 116.171 641.581C115.842 641.91 115.513 642.13 115.073 641.801C114.634 641.581 114.634 641.252 114.634 640.813C114.744 639.607 113.976 638.619 112.878 638.29C112.549 638.18 112.22 637.851 112.11 637.632C111.89 637.193 112.11 636.864 112.549 636.535C113.537 635.986 113.866 634.779 113.317 633.682C113.207 633.353 113.207 632.914 113.317 632.695C113.537 632.366 113.866 632.037 114.415 632.256C115.513 632.695 116.5 632.256 117.159 631.159C117.269 630.94 117.708 630.61 118.037 630.72C118.366 630.72 118.805 630.94 118.915 631.269C119.464 632.475 120.232 632.914 121.55 632.695C121.879 632.695 122.208 632.914 122.537 633.134C122.867 633.463 122.867 633.792 122.647 634.231C121.989 635.328 122.098 636.206 123.196 636.974C123.635 637.303 123.635 637.632 123.525 638.071C123.416 638.619 123.086 638.729 122.647 638.729C121.55 638.839 120.781 639.716 120.781 640.923C120.891 641.252 120.891 641.581 120.232 641.91ZM117.927 633.573C116.281 633.573 114.964 634.889 115.073 636.535C115.073 638.071 116.391 639.387 117.927 639.387C119.464 639.387 120.781 638.071 120.781 636.535C120.671 634.779 119.464 633.573 117.927 633.573Z" fill="#353831"/>
<path d="M288.939 464.839C288.061 464.839 287.183 464.62 286.304 464.291C285.975 464.181 285.865 463.742 285.975 463.413C286.085 463.084 286.524 462.974 286.853 463.084C288.829 464.071 291.463 463.413 292.671 461.767C293 461.438 293.11 460.89 293.22 460.451C292.561 460.341 291.793 460.122 291.244 459.902C290.366 459.573 289.597 459.134 288.939 458.476C288.28 457.708 287.951 456.391 288.719 455.404C289.597 454.197 291.354 454.307 292.451 455.075C293.549 455.733 294.317 456.94 294.537 458.366C294.537 458.586 294.646 458.805 294.646 459.024C295.854 458.695 296.732 457.598 297.061 456.172C297.171 455.404 297.171 454.636 296.952 453.758C295.525 453.758 294.317 453.429 293.329 453.1C291.902 452.661 291.024 451.674 290.915 450.577C290.805 449.809 291.134 449.151 291.793 448.602C292.561 447.944 293.659 447.724 294.537 448.054C295.744 448.492 296.732 449.48 297.5 451.235C297.61 451.564 297.83 451.893 297.939 452.222C298.269 452.113 298.708 452.003 299.037 451.893C299.147 451.784 300.464 451.235 300.903 449.809C301.123 449.151 301.123 448.492 300.903 447.834C298.708 448.163 295.744 447.286 294.427 445.859C293.549 444.982 293.549 444.104 293.768 443.555C293.988 442.678 294.756 442.239 295.744 442.129C297.281 441.91 299.805 442.787 300.793 444.323C301.232 444.982 301.562 445.64 301.781 446.188C302.879 445.64 303.976 444.653 304.525 443.555C304.964 442.787 305.294 441.471 304.525 440.045C304.306 439.716 304.525 439.277 304.854 439.167C305.184 439.057 305.623 439.167 305.733 439.496C306.501 441.032 306.501 442.678 305.733 444.214C304.964 445.64 303.647 446.956 302.22 447.505C302.44 448.492 302.44 449.48 302.22 450.248C301.671 452.332 299.805 453.1 299.586 453.21C299.147 453.429 298.708 453.539 298.269 453.649C298.488 454.636 298.488 455.514 298.378 456.391C298.049 458.366 296.622 459.902 294.976 460.341C294.866 460.341 294.756 460.341 294.646 460.451C294.537 461.219 294.207 461.877 293.768 462.535C292.671 463.961 290.805 464.839 288.939 464.839ZM290.695 455.733C290.366 455.733 290.036 455.843 289.927 456.062C289.597 456.391 289.817 457.05 290.146 457.489C290.585 457.927 291.244 458.257 291.902 458.586C292.451 458.805 293 459.024 293.549 459.024C293.549 458.915 293.549 458.695 293.439 458.586C293.22 457.598 292.671 456.721 291.902 456.172C291.463 455.843 291.024 455.733 290.695 455.733ZM293.768 449.37C293.439 449.37 293 449.48 292.671 449.699C292.451 449.809 292.232 450.138 292.232 450.467C292.341 451.125 293.11 451.564 293.768 451.784C294.537 452.003 295.525 452.332 296.622 452.332C296.512 452.222 296.512 452.003 296.403 451.784C295.744 450.357 295.086 449.589 294.207 449.37C294.098 449.37 293.878 449.37 293.768 449.37ZM296.293 443.336C296.183 443.336 296.073 443.336 295.964 443.336C295.525 443.446 295.195 443.555 295.086 443.885C295.086 443.994 294.976 444.323 295.415 444.872C296.403 445.969 298.708 446.627 300.464 446.518C300.244 446.079 299.915 445.53 299.586 444.982C299.147 444.104 297.5 443.336 296.293 443.336Z" fill="#353831"/>
<path d="M302.44 290.73C300.025 289.962 297.171 289.962 294.756 289.742C291.902 289.523 289.378 289.852 287.183 291.827C285.646 293.253 284.768 295.009 284.548 296.874C284.219 297.203 283.89 297.532 283.67 297.971C281.804 301.372 282.463 307.515 284.987 310.368C288.39 314.208 295.415 315.415 300.135 313.879C304.745 312.343 308.477 308.174 309.355 303.346C310.123 298.08 307.708 292.485 302.44 290.73Z" fill="#E89F2B"/>
<path d="M329.771 292.814C325.819 288.316 303.208 273.835 297.281 273.835C288.28 273.835 270.169 287.109 262.595 293.802C258.754 297.093 258.315 298.739 261.278 299.507C267.864 301.262 274.011 301.591 279.17 301.701C287.841 302.03 296.512 302.03 305.184 301.701C311.111 301.481 321.319 300.933 327.246 299.397C331.417 298.3 335.039 298.739 329.771 292.814Z" fill="#B3571C"/>
<path d="M296.293 282.611C295.634 255.732 295.415 228.744 295.525 201.865Z" fill="#B3571C"/>
<path d="M297.171 282.831C299.476 276.797 299.257 286.561 299.476 280.198C299.696 273.286 299.257 249.15 299.257 242.238C299.366 228.634 300.354 214.701 297.281 201.316C296.842 199.561 294.098 199.561 293.659 201.316C290.366 214.92 291.573 229.402 291.902 243.335C292.012 250.247 290.914 272.299 291.463 279.101C291.902 285.244 292.89 277.345 295.415 283.05C295.854 283.818 296.951 283.489 297.171 282.831Z" fill="#B3571C"/>
<path d="M298.817 276.358C305.184 279.43 311.221 283.16 316.928 287.439C317.807 288.097 318.575 286.671 317.807 286.012C312.209 281.734 306.172 278.004 299.696 274.932C298.708 274.493 297.83 275.919 298.817 276.358Z" fill="#B7917D"/>
<path d="M284.329 304.114C284.877 304.114 284.877 303.237 284.329 303.237C283.78 303.237 283.78 304.114 284.329 304.114Z" fill="#F4B251"/>
<path d="M284.548 306.418C286.743 312.672 293.768 314.866 299.805 313.001C300.354 312.891 300.135 312.014 299.586 312.233C293.988 313.988 287.402 312.123 285.317 306.199C285.097 305.65 284.329 305.87 284.548 306.418Z" fill="#F4B251"/>
<path d="M319.673 289.194C320.77 289.194 320.77 287.548 319.673 287.548C318.575 287.548 318.575 289.194 319.673 289.194Z" fill="#B7917D"/>
</g>
<rect opacity="0.99" width="61.4969" height="15.1222" rx="3.83295" transform="matrix(-1 0 0 1 61.4961 489.666)" fill="white"/>
<rect opacity="0.99" width="61.1609" height="15.4582" rx="3.83295" transform="matrix(-1 0 0 1 129.379 449.676)" fill="white"/>
<rect opacity="0.99" width="61.833" height="15.1222" rx="3.83295" transform="matrix(-1 0 0 1 195.244 489.666)" fill="white"/>
<rect opacity="0.99" width="61.833" height="15.1222" rx="3.83295" transform="matrix(-1 0 0 1 459.043 366)" fill="white"/>
<rect opacity="0.99" width="62.8411" height="15.1222" rx="3.83295" transform="matrix(-1 0 0 1 504.744 514.87)" fill="white"/>
<rect opacity="0.99" width="61.4969" height="15.4582" rx="3.83295" transform="matrix(-1 0 0 1 133.41 515.542)" fill="white"/>
<rect opacity="0.99" width="62.8411" height="15.1222" rx="3.83295" transform="matrix(-1 0 0 1 521.883 450.012)" fill="white"/>
<rect opacity="0.99" width="62.8411" height="15.4582" rx="3.83295" transform="matrix(-1 0 0 1 548.096 407.67)" fill="white"/>
<rect opacity="0.99" width="61.4969" height="15.4582" rx="3.83295" transform="matrix(-1 0 0 1 182.475 407.67)" fill="white"/>
<rect opacity="0.99" width="62.8411" height="15.1222" rx="3.83295" transform="matrix(-1 0 0 1 581.699 489.666)" fill="white"/>
<defs>
<filter id="filter0_d_102_2" x="101" y="165" width="384" height="496" filterUnits="userSpaceOnUse" color-interpolation-filters="sRGB">
<feFlood flood-opacity="0" result="BackgroundImageFix"/>
<feColorMatrix in="SourceAlpha" type="matrix" values="0 0 0 0 0 0 0 0 0 0 0 0 0 0 0 0 0 0 127 0" result="hardAlpha"/>
<feOffset dy="-24"/>
<feGaussianBlur stdDeviation="5.5"/>
<feComposite in2="hardAlpha" operator="out"/>
<feColorMatrix type="matrix" values="0 0 0 0 0 0 0 0 0 0 0 0 0 0 0 0 0 0 0.25 0"/>
<feBlend mode="normal" in2="BackgroundImageFix" result="effect1_dropShadow_102_2"/>
<feBlend mode="normal" in="SourceGraphic" in2="effect1_dropShadow_102_2" result="shape"/>
</filter>
<clipPath id="clip0_102_2">
<rect width="362" height="461" fill="white" transform="translate(112 200)"/>
</clipPath>
</defs>
</svg>
